<svg transform="scale(1)" id="_0020_checklist_2" xmlns="http://www.w3.org/2000/svg" viewBox="0 0 500 500" class="show_show__wrapper__graphic__5Waiy "><title>React</title><defs><style>.cls-1{fill:#424140;}.cls-2{fill:#fff;}.cls-3{fill:#a855f7;}.cls-4{fill:#ffde91;}.cls-5{fill:#a855f7;}.cls-6{fill:#e6e7e8;}.cls-7{fill:#3a3b3d;}</style></defs><g id="hand-behind"><path class="cls-4" d="M28.08,219.48c-6.04,29.4-3.31,59.41,2.39,88.57,1.99,10.19,4.4,20.46,9.81,29.64s14.19,17.28,25.71,20.6c19.04,5.49,41.38-3.75,53.02-18.1,11.64-14.35,14.32-32.5,13.14-49.59-1.18-17.09-5.82-33.81-7.4-50.87-1.43-15.58-.29-31.34-1.65-46.93-1.57-18.06-16.56-70.79-49.45-49.97-26.38,16.71-40.25,50.7-45.58,76.65Z"></path><path class="cls-1" d="M24.73,426.15c-3.69,8.17-7.46,16.51-8.26,25.44-.8,8.93,1.95,18.7,9.14,24.04,9.76,7.25,24.4,3.76,33.3-4.52,8.9-8.29,13.46-20.11,17.73-31.5,7.86-20.97,15.72-41.95,23.59-62.92,2.41-6.44,4.87-13.18,4.03-20.01-2.28-18.69-38.75-39.24-49.16-17.23-5.96,12.59-7.08,29.18-11.9,42.54-5.42,15.01-11.9,29.62-18.47,44.15Z"></path></g><g id="notes"><path class="cls-3" d="M113.68,424.61c7.95,1.74,16.21,.38,24.23-.98,59.07-10.02,118.71-20.2,174.13-42.99,10.99-4.52,22.7-10.42,27.39-21.34,3.33-7.74,2.45-16.57,1.46-24.94-10.91-92.44-27.21-184.47-54.3-273.52-2.57-8.46-5.99-17.79-13.97-21.59-4.74-2.26-10.23-2.09-15.47-1.82-61.1,3.17-121.78,14.23-180.07,32.82-10.86,3.46-22.5,7.85-28.44,17.59-5.71,9.36-4.64,21.2-3.31,32.08,5.28,43.42,11.47,86.74,18.55,129.9,7.15,43.58,15.22,87.01,24.2,130.25,3.56,17.17,4.49,39.92,25.6,44.54Z"></path><g><path class="cls-7" d="M64.37,86.73c8.21,103.16,24.1,205.72,47.49,306.53,.73,3.15,1.68,6.61,4.39,8.39,2.56,1.67,5.9,1.31,8.92,.86,64.68-9.43,128.58-24.18,190.85-44.05,2.89-.92,5.97-1.98,7.8-4.41,2.44-3.23,1.88-7.74,1.2-11.73-16.84-98.62-36.2-196.8-58.07-294.42-28.74,3.17-57.33,7.74-85.63,13.67-13.74,2.88-27.32,6.92-41.11,9.47-9.68,1.79-19.23,2.07-28.89,4.39-4.03,.97-47.02,10.19-46.94,11.3Z"></path><path class="cls-6" d="M120.25,393.28c70.64-11.44,141.57-22.95,209.82-44.47-16.29-102.7-36.67-204.76-61.05-305.85-35.03,5.14-69.94,11.06-104.71,17.75-17.49,3.37-34.93,6.93-52.34,10.69-8.6,1.86-17.2,3.74-25.78,5.72-4.7,1.08-11.1,1.8-14.86,5.19-8.57,7.72-1.65,29.94-.58,39.81,1.89,17.45,4.02,34.88,6.4,52.27,4.75,34.79,10.46,69.44,17.13,103.92,1.89,9.77,23.04,115.43,25.97,114.96Z"></path><path class="cls-7" d="M156.45,141.28c-.33,0-.65,0-.97,0-.25,0-.46-.22-.45-.47,0-.25,.21-.45,.46-.45h0c9.99,.23,19.86-2.87,29.38-5.84,2.26-.71,4.52-1.41,6.78-2.07,21.71-6.37,44.51-8.97,66.57-11.49,.26-.03,.48,.15,.51,.41s-.15,.48-.41,.51c-22.02,2.51-44.78,5.11-66.41,11.46-2.25,.66-4.51,1.36-6.76,2.07-9.29,2.9-18.88,5.89-28.7,5.89Z"></path><path class="cls-7" d="M155.18,154.56c-.22,0-.42-.16-.46-.39-.04-.25,.13-.49,.38-.53,35.52-5.71,71.29-12.72,106.33-20.84,.25-.06,.5,.1,.55,.35,.06,.25-.1,.5-.35,.55-35.06,8.12-70.86,15.14-106.39,20.85-.02,0-.05,0-.07,0Z"></path><path class="cls-7" d="M161.54,167.01c-.24,0-.44-.18-.46-.42-.02-.25,.17-.48,.42-.5,19.16-1.56,38.26-5.96,56.73-10.21,17.33-3.99,35.24-8.12,53.21-9.91,.25-.01,.48,.16,.51,.41s-.16,.48-.41,.51c-17.91,1.78-35.8,5.9-53.1,9.89-18.5,4.26-37.63,8.67-56.86,10.23-.01,0-.03,0-.04,0Z"></path><path class="cls-7" d="M166.04,213.77c-.33,0-.65,0-.97,0-.25,0-.46-.22-.45-.47,0-.25,.21-.45,.46-.45h0c10.01,.21,19.86-2.87,29.38-5.84,2.26-.71,4.52-1.41,6.77-2.07,21.71-6.37,44.52-8.97,66.57-11.49,.26-.02,.48,.15,.51,.41,.03,.25-.15,.48-.41,.51-22.01,2.51-44.78,5.11-66.41,11.46-2.25,.66-4.5,1.36-6.76,2.07-9.29,2.9-18.88,5.89-28.7,5.89Z"></path><path class="cls-7" d="M164.77,227.04c-.22,0-.42-.16-.46-.39-.04-.25,.13-.49,.38-.53,35.51-5.71,71.29-12.72,106.33-20.84,.25-.06,.5,.1,.55,.35,.06,.25-.1,.5-.35,.55-35.06,8.12-70.86,15.14-106.39,20.85-.02,0-.05,0-.07,0Z"></path><path class="cls-7" d="M171.13,239.49c-.24,0-.44-.18-.46-.42-.02-.25,.17-.48,.42-.5,19.16-1.56,38.25-5.96,56.72-10.21,17.33-3.99,35.25-8.12,53.22-9.91,.24-.01,.48,.16,.51,.41,.03,.25-.16,.48-.41,.51-17.92,1.78-35.8,5.9-53.1,9.89-18.5,4.26-37.63,8.67-56.86,10.23-.01,0-.03,0-.04,0Z"></path><path class="cls-7" d="M183.2,287.1c-.32,0-.65,0-.97,0-.25,0-.46-.22-.45-.47,0-.25,.21-.45,.46-.45h0c10.01,.24,19.86-2.87,29.38-5.84,2.26-.71,4.52-1.41,6.78-2.07,21.71-6.37,44.51-8.97,66.57-11.49,.26-.02,.48,.15,.51,.41,.03,.25-.15,.48-.41,.51-22.02,2.51-44.78,5.11-66.41,11.46-2.25,.66-4.51,1.36-6.76,2.07-9.29,2.9-18.88,5.89-28.7,5.89Z"></path><path class="cls-7" d="M181.94,300.38c-.22,0-.42-.16-.46-.39-.04-.25,.13-.49,.38-.53,35.52-5.71,71.29-12.72,106.33-20.84,.25-.06,.5,.1,.55,.35,.06,.25-.1,.5-.35,.55-35.06,8.12-70.85,15.14-106.39,20.85-.02,0-.05,0-.07,0Z"></path><path class="cls-7" d="M188.3,312.83c-.24,0-.44-.18-.46-.42-.02-.25,.17-.48,.42-.5,19.16-1.56,38.26-5.96,56.73-10.21,17.33-3.99,35.24-8.12,53.21-9.91,.25-.02,.48,.16,.51,.41,.03,.25-.16,.48-.41,.51-17.91,1.78-35.8,5.9-53.1,9.89-18.5,4.26-37.63,8.67-56.86,10.23-.01,0-.03,0-.04,0Z"></path><path class="cls-1" d="M226.31,46.35c-1.34-4.83-4.68-9.41-9.49-10.84-4.95-1.46-10.68,.53-15.21-1.94-4.77-2.6-6.04-8.96-10.02-12.66-4.48-4.16-11.35-4.12-17.43-3.39-9.15,1.09-18.18,3.18-26.88,6.21-4.39,1.53-8.9,3.45-11.75,7.12-3.16,4.07-3.74,9.61-6.48,13.97-5.53,8.91-16.31,6.92-23.08,13.35-5.41,5.14-3.45,21.39,2.58,25.4,2.4,1.6,5.54,1.39,8.41,1.12,37.51-3.57,75.79-7.64,110.02-23.39,.34-5,.66-10.12-.68-14.95Zm-52.84-12.08c-7.31,2.64-14.96,4.36-22.69,5.11-3.13,.3-7,.05-8.38-2.77-1.82-3.7,31.32-13.63,37.25-9.67,6.23,4.15-1.57,5.67-6.17,7.34Z"></path></g><g><path class="cls-3" d="M129.61,140.38c-10.21-9.35-25.48-3.8-31.99,7.1-3.81,6.38-4.35,14.78-.76,21.3,4.77,8.67,16.52,12.49,25.69,8.76,9.17-3.72,14.9-14.17,13.66-23.99-.63-4.97-2.9-9.78-6.6-13.17Zm-1.49,19.15c-1.41,3.94-4.48,7.19-8.18,9.15-2.48,1.32-5.3,2.09-8.1,1.83-4.57-.42-8.68-3.75-10.31-8.04-1.63-4.3-.83-9.36,1.81-13.12,5.26-7.5,17.81-10.57,23.53-1.87,2.3,3.5,2.66,8.11,1.25,12.05Z"></path><g><path class="cls-1" d="M115.56,168.33c-1.46,0-2.81-.66-3.72-1.8-2.88-3.62-5.67-7.39-8.31-11.18-1.17-1.68-2.06-3.07-2.62-4.37-.64-1.5-.52-3.03,.32-4.3,.9-1.36,2.5-2.21,4.18-2.21,1.79,0,3.29,.94,4.14,2.58,1.31,2.54,2.51,4.83,3.83,7.06,.36,.61,.97,.96,1.68,.96,.63,0,1.44-.31,1.83-1.18l8.26-18.55c.87-1.96,2.07-4.65,4.44-6.12,1.25-.78,2.73-1.17,4.4-1.17,.31,0,.62,.01,.93,.04,1.74,.14,3.21,1.18,3.94,2.77,.72,1.6,.53,3.4-.52,4.81-7.05,9.41-13.28,19.52-18.52,30.04-.81,1.62-2.44,2.63-4.26,2.63h0Z"></path><path class="cls-6" d="M133.99,129.42c.27,0,.55,.01,.82,.03,2.63,.21,4,3.25,2.41,5.37-7.11,9.5-13.36,19.64-18.65,30.25-.61,1.22-1.81,1.86-3.02,1.86-.97,0-1.95-.42-2.64-1.28-2.87-3.62-5.62-7.32-8.26-11.11-1.11-1.6-1.97-2.93-2.48-4.12-1.09-2.57,1.07-4.58,3.23-4.58,1.12,0,2.25,.54,2.91,1.83,1.24,2.41,2.49,4.8,3.87,7.13,.65,1.1,1.76,1.64,2.87,1.64,1.25,0,2.51-.68,3.09-2,2.75-6.18,5.5-12.36,8.26-18.55,.93-2.09,1.96-4.3,3.91-5.51,1.12-.7,2.37-.97,3.67-.97m0-2.77h0c-1.93,0-3.66,.47-5.13,1.38-2.73,1.7-4.03,4.61-4.97,6.74l-1.9,4.28-6.35,14.27c-.14,.31-.41,.36-.56,.36-.33,0-.45-.21-.49-.28-1.31-2.21-2.49-4.47-3.79-6.99-1.08-2.09-3.09-3.33-5.37-3.33-2.14,0-4.18,1.08-5.34,2.83-1.09,1.65-1.25,3.7-.44,5.61,.6,1.41,1.54,2.87,2.76,4.62,2.66,3.82,5.47,7.6,8.36,11.25,1.17,1.48,2.93,2.33,4.81,2.33,2.35,0,4.45-1.3,5.5-3.4,5.21-10.45,11.39-20.49,18.39-29.83,1.34-1.79,1.6-4.17,.68-6.21-.92-2.03-2.87-3.41-5.09-3.59-.35-.03-.7-.04-1.04-.04h0Z"></path></g></g><g><path class="cls-3" d="M140.74,218.86c-10.21-9.35-25.48-3.8-31.99,7.1-3.81,6.38-4.35,14.78-.76,21.3,4.77,8.67,16.52,12.49,25.69,8.76,9.17-3.72,14.9-14.17,13.66-23.99-.63-4.97-2.9-9.78-6.6-13.17Zm-1.49,19.15c-1.41,3.94-4.48,7.19-8.18,9.15-2.48,1.32-5.3,2.09-8.1,1.83-4.57-.42-8.68-3.75-10.31-8.04-1.63-4.3-.83-9.36,1.81-13.12,5.26-7.5,17.81-10.57,23.53-1.87,2.3,3.5,2.66,8.11,1.25,12.05Z"></path><g><path class="cls-1" d="M126.69,246.81c-1.46,0-2.81-.66-3.72-1.8-2.87-3.62-5.67-7.38-8.31-11.18-1.17-1.68-2.07-3.07-2.62-4.37-.64-1.5-.52-3.03,.32-4.3,.9-1.36,2.5-2.21,4.18-2.21,1.79,0,3.29,.94,4.14,2.58,1.31,2.54,2.5,4.82,3.83,7.06,.36,.61,.97,.96,1.68,.96,.63,0,1.44-.31,1.83-1.18l8.25-18.55c.87-1.96,2.07-4.65,4.44-6.12,1.25-.78,2.74-1.18,4.4-1.18,.31,0,.62,.01,.93,.04,1.74,.14,3.22,1.18,3.94,2.78,.72,1.6,.53,3.4-.53,4.8-7.05,9.41-13.28,19.52-18.52,30.04-.81,1.62-2.44,2.63-4.26,2.63h0Z"></path><path class="cls-6" d="M145.13,207.9c.27,0,.55,.01,.82,.03,2.63,.21,4,3.25,2.41,5.37-7.11,9.5-13.36,19.64-18.65,30.25-.61,1.22-1.81,1.86-3.02,1.86-.97,0-1.95-.42-2.64-1.28-2.87-3.62-5.62-7.32-8.26-11.11-1.11-1.6-1.97-2.93-2.48-4.12-1.09-2.57,1.07-4.58,3.23-4.58,1.12,0,2.25,.54,2.91,1.83,1.24,2.41,2.49,4.8,3.87,7.13,.65,1.1,1.76,1.64,2.87,1.64,1.25,0,2.51-.68,3.09-2,2.75-6.18,5.5-12.36,8.26-18.55,.93-2.09,1.96-4.3,3.91-5.51,1.12-.7,2.37-.97,3.67-.97m0-2.77h0c-1.93,0-3.66,.47-5.13,1.38-2.73,1.7-4.03,4.61-4.97,6.74l-5.17,11.62-3.08,6.93c-.14,.31-.41,.36-.56,.36-.33,0-.45-.21-.49-.28-1.31-2.21-2.49-4.47-3.79-6.99-1.08-2.09-3.09-3.33-5.37-3.33-2.14,0-4.18,1.08-5.34,2.83-1.09,1.65-1.25,3.7-.44,5.61,.6,1.41,1.54,2.87,2.76,4.62,2.66,3.82,5.47,7.6,8.36,11.25,1.17,1.48,2.92,2.33,4.81,2.33,2.35,0,4.45-1.3,5.5-3.4,5.21-10.45,11.39-20.48,18.39-29.83,1.34-1.79,1.6-4.17,.68-6.21-.92-2.03-2.87-3.41-5.09-3.59-.35-.03-.7-.04-1.04-.04h0Z"></path></g></g><path class="cls-3" d="M158.55,293.68c-10.21-9.35-25.48-3.8-31.99,7.1-3.81,6.38-4.35,14.78-.76,21.3,4.77,8.67,16.52,12.49,25.69,8.76,9.17-3.72,14.9-14.17,13.66-23.99-.63-4.97-2.9-9.78-6.6-13.17Zm-1.49,19.15c-1.41,3.94-4.48,7.19-8.18,9.15-2.48,1.32-5.3,2.09-8.1,1.83-4.57-.42-8.68-3.75-10.31-8.04-1.63-4.3-.83-9.36,1.81-13.12,5.26-7.5,17.81-10.57,23.53-1.87,2.3,3.5,2.66,8.11,1.25,12.05Z"></path></g><g id="hand-front"><g><path class="cls-4" d="M77.34,207.04c5.3-3.77,12.04-7.55,19.06-6.71,5.46,.65,9.52,4.11,11.11,7.97,1.59,3.86,1.12,8.09,.31,12.18-3.53,17.71-13.41,34.98-28.37,49.56,12.64,9.51,24.32,19.9,32.14,31.97,7.82,12.07,11.58,25.98,7.99,39.52-1.66,6.24-4.95,12.43-10.68,17.34-5.74,4.91-14.13,8.39-22.7,8.4-11.33,.02-20.67-5.72-28-11.77-17.57-14.51-33.7-34.8-32.82-55.27,.95-22.07,6.16-43.02,20.97-63.08,8.17-11.06,18.61-21.3,30.99-30.1Z"></path><g><path class="cls-4" d="M46.35,237.14c8.17-11.06,18.61-21.3,30.99-30.1"></path><path class="cls-6" d="M46.35,237.64c-.1,0-.21-.03-.3-.1-.22-.16-.27-.48-.11-.7,8.35-11.31,18.82-21.48,31.1-30.21,.22-.16,.54-.11,.7,.12,.16,.23,.11,.54-.12,.7-12.2,8.67-22.58,18.77-30.88,29.99-.1,.13-.25,.2-.4,.2Z"></path></g></g><g><g><path class="cls-1" d="M395.71,387.28c7.21,7.69,15.56,15.09,25.87,17.3,10.53,2.26,22.16-1.7,29.09-9.94,6.93-8.24,8.83-20.41,4.69-30.35-3.99-9.59-12.62-16.27-20.35-23.21-18.68-16.75-33.87-37.36-44.34-60.16-2.33-5.08-4.7-10.58-9.42-13.57-12.28-7.76-24.06,5.06-29.07,15-5.09,10.11-4.88,17.54-1.5,28.14,9.1,28.47,24.59,54.99,45.03,76.78Z"></path><path class="cls-4" d="M402.24,227.95c-2.14-21.95-9.33-43.08-17.21-63.68-8.23-21.52-19.25-44.79-40.64-53.38-21.89-8.8-48.01,1.92-62.96,20.17-14.95,18.25-20.68,42.34-23.18,65.8-2.36,22.18-1.29,47.12,14.22,63.15,12.41,12.82,31.1,16.82,48.63,20.21,13.64,2.64,27.28,5.29,40.92,7.91,8.14,1.57,18.4,4.74,26.16,.13,16.74-9.93,15.49-44.06,14.06-60.3Z"></path><path class="cls-2" d="M314.27,241.76s-.05,0-.07,0c-21.83-3.08-42.53-14.5-56.79-31.32-.18-.21-.15-.53,.06-.71,.21-.18,.53-.15,.71,.06,14.1,16.63,34.57,27.92,56.17,30.97,.27,.04,.46,.29,.42,.57-.04,.25-.25,.43-.49,.43Z"></path></g><g><g><path class="cls-1" d="M358.11,112.29c-50.1,38.54-101.23,78.18-135.25,131.44,45.25-11.86,86.94-34.93,124.69-62.55,37.75-27.62,71.87-59.84,105.87-91.96,5.27-4.98,15.59-13.85,12.7-22.31-2.28-6.67-11.33-7.79-17.3-7.41-20.34,1.27-42.44,17.85-58.64,29.03-10.95,7.56-21.52,15.65-32.06,23.76Z"></path><path class="cls-5" d="M457.63,60.74c-1.92,1.44-3.84,3.04-4.78,5.25-.94,2.2-.54,5.15,1.49,6.43,2.53,1.59,5.78-.12,8.25-1.8,4.09-2.78,29.16-16.55,23.61-20.95-6.77-5.37-23.9,7.57-28.57,11.08Z"></path><path class="cls-5" d="M438.07,123.17c-12.06,10.39-27.48,15.93-42.67,20.7-6.81,2.13-13.74,4.2-19.79,7.98-6.05,3.78-11.22,9.57-12.53,16.59-.62,3.3-.26,6.99,1.91,9.55,2.17,2.56,6.47,3.4,8.94,1.13,2.37-2.18,2.17-5.88,2.92-9.01,1.89-7.88,10.07-12.33,17.54-15.48,15.32-6.45,31.37-11.64,45.16-20.92,13.79-9.28,25.34-23.77,26.05-40.37,.51-11.86-6.9-15.82-9.96-2.97-3.13,13.13-6.89,23.62-17.57,32.81Z"></path><path class="cls-5" d="M271.18,226.78c24.68-2.52,45.72-18.25,65.36-33.4,5.17-3.99,10.58-8.29,12.91-14.39,3.53-9.25-1.08-19.53-6.44-27.85-4.78-7.42-11.69-15.12-20.51-14.71-6.05,.28-11.16,4.38-15.75,8.33-15.93,13.73-31.4,28.04-46.2,42.98-7.65,7.72-6.04,9.67,.56,17.17,1.32,1.51,12.69,21.61,10.06,21.87Z"></path><path class="cls-5" d="M436.22,105.97c3.89-.51,6.82-4.16,7.57-8.02s-.26-7.84-1.63-11.51c-2.77-7.4-7.2-14.34-13.54-19.05-2.6-1.94-11.43-4.04-9.42,2.06,1.19,3.62,6.06,7.52,8.13,10.9,1.16,1.9,11.11,25.32,8.88,25.61Z"></path></g><path class="cls-4" d="M300.07,102.01c-21.49,11.68-33.93,38.01-29.29,62.03,.71,3.7,1.93,7.55,4.8,9.99,4.64,3.93,12.08,2.58,16.7-1.38,4.62-3.96,7.06-9.82,9.27-15.48,2.2-5.67,4.44-11.57,8.8-15.8,.69-.67,14.39,.83,16.76,.37,5.94-1.16,11.8-3.68,16.52-7.51,6.46-5.23,11.85-13.72,11.11-22.35-2.05-24.11-40.66-17.46-54.66-9.86Z"></path><g><path class="cls-4" d="M270.78,164.04c.71,3.7,1.93,7.55,4.8,9.99,4.64,3.93,12.08,2.58,16.7-1.38,4.62-3.96,7.06-9.82,9.27-15.48,2.2-5.67,4.44-11.57,8.8-15.8,.69-.67,14.39,.83,16.76,.37,5.94-1.16,11.8-3.68,16.52-7.51,6.46-5.23,11.85-13.72,11.11-22.35"></path><path class="cls-6" d="M282.4,176.88c-2.58,0-5.09-.75-7.13-2.47-3.17-2.68-4.32-6.9-4.97-10.27-.05-.27,.12-.53,.4-.59,.27-.05,.53,.12,.59,.4,.62,3.21,1.71,7.22,4.63,9.7,4.55,3.85,11.73,2.33,16.05-1.38,4.41-3.78,6.83-9.39,9.12-15.29l.12-.31c2.18-5.62,4.44-11.43,8.8-15.67,.43-.42,1.79-.42,8.57,0,3.45,.21,7.36,.45,8.44,.24,6.17-1.2,11.8-3.76,16.3-7.41,5.79-4.69,11.69-12.91,10.93-21.92-.02-.27,.18-.52,.46-.54,.24-.03,.52,.18,.54,.46,.8,9.4-5.31,17.93-11.29,22.78-4.62,3.75-10.41,6.38-16.74,7.61-1.21,.23-4.84,0-8.69-.23-3.09-.19-7.32-.45-7.89-.22-4.12,4.03-6.34,9.74-8.48,15.26l-.12,.31c-2.34,6.02-4.82,11.75-9.41,15.68-2.72,2.34-6.53,3.85-10.21,3.85Z"></path></g><path class="cls-4" d="M312.06,261.01c-1.65-6.63-2-13.62-4.62-19.93-3.77-9.07-11.71-15.59-18.94-22.24-7.22-6.65-14.31-14.38-16.04-24.04-1.73-9.66,4.31-21.25,14.09-21.95,10.18-.73,17.32,9.47,26.22,14.47,15,8.43,34.05,1.44,50.82,5.31,21.45,4.94,35.4,27.93,35.18,49.94-.19,18.75-12.32,57.68-35.06,57.92-23.19,.24-46.05-16.96-51.65-39.47Z"></path><g><path class="cls-4" d="M363.71,300.49c-23.19,.24-46.05-16.96-51.65-39.47-1.65-6.63-2-13.62-4.62-19.93-3.77-9.07-11.71-15.59-18.94-22.24-7.22-6.65-14.31-14.38-16.04-24.04-1.73-9.66,4.31-21.25,14.09-21.95,10.18-.73,17.32,9.47,26.22,14.47,15,8.43,34.05,1.44,50.82,5.31"></path><path class="cls-6" d="M363.23,300.99c-23.44,0-46.07-17.42-51.66-39.85-.6-2.42-1.04-4.93-1.46-7.35-.73-4.2-1.49-8.54-3.14-12.51-3.31-7.97-9.97-14.02-16.41-19.87-.81-.73-1.61-1.47-2.41-2.2-7.01-6.45-14.41-14.38-16.19-24.32-1.02-5.67,.56-12.04,4.11-16.61,2.75-3.54,6.46-5.64,10.44-5.93,7.02-.5,12.67,4.07,18.14,8.49,2.68,2.17,5.45,4.41,8.36,6.04,8.68,4.88,18.56,4.53,29.03,4.16,7.2-.26,14.65-.52,21.65,1.1,.27,.06,.44,.33,.38,.6-.06,.27-.33,.44-.6,.38-6.87-1.58-14.25-1.32-21.39-1.07-10.15,.36-20.64,.73-29.56-4.29-2.98-1.67-5.79-3.94-8.5-6.13-5.57-4.5-10.85-8.75-17.44-8.27-4.74,.34-7.9,3.2-9.72,5.55-3.38,4.36-4.89,10.42-3.92,15.82,1.73,9.64,9,17.42,15.88,23.76,.79,.73,1.6,1.46,2.4,2.19,6.52,5.92,13.26,12.05,16.66,20.22,1.69,4.07,2.46,8.47,3.2,12.72,.42,2.4,.85,4.89,1.45,7.28,5.48,22.01,27.68,39.1,50.68,39.1,.16,0,.32,0,.48,0,.24,.02,.5,.22,.5,.5,0,.28-.22,.5-.5,.5-.16,0-.33,0-.49,0Z"></path></g></g></g></g></svg>