<svg transform="scale(1)" id="_0378_Question" xmlns="http://www.w3.org/2000/svg" viewBox="0 0 500 500" class="show_show__wrapper__graphic__5Waiy "><title>React</title><defs><style>.cls-1{fill:#a855f7;}.cls-2{fill:#fff;}.cls-3{fill:#a855f7;}.cls-4{fill:#ffde91;}.cls-5{fill:#a855f7;}.cls-6{fill:#424140;}.cls-7{fill:#eaeaea;}</style></defs><g id="question-mark"><path class="cls-7" d="M338.04,57.29c-11.25,9.49-18.85,22.64-24.38,36.27-6.01,14.84-9.81,31.46-5.32,46.83,3.18,10.86,10.34,20.28,19.1,27.44,13.31,10.87,30.56,16.79,47.74,16.4,17.18-.39,34.14-7.09,46.95-18.55,8.66-7.75,15.44-17.62,19.43-28.54,7.37-20.19,4.65-43.79-7.13-61.76-20.03-30.58-67.07-42.84-96.4-18.09Z"></path><path class="cls-7" d="M303.27,165.76c-1.61,1.36-2.7,3.25-3.49,5.2-.86,2.13-1.41,4.51-.76,6.71,.46,1.56,1.48,2.91,2.74,3.93,1.91,1.56,4.38,2.41,6.84,2.35s4.89-1.02,6.73-2.66c1.24-1.11,2.21-2.53,2.79-4.09,1.06-2.89,.67-6.28-1.02-8.85-2.87-4.38-9.61-6.14-13.82-2.59Z"></path><g id="X_and_"><path class="cls-3" d="M383.2,96.82c3.4,1.52,7.25,1.58,10.89,2.39,3.64,.81,7.46,2.77,8.6,6.32,1.69,5.25-3.61,10.39-9,11.58-5.38,1.19-11.03,0-16.48,.8-9.97,1.45-17.73,9.1-24.72,16.35,2.58,3.19,6,5.7,9.82,7.2,5.19-7.67,13.93-12.83,23.15-13.68,6.94-.64,13.88,1.04,20.85,1.21,8.8,.21,18.69-2.9,22.44-10.86,3.7-7.84-.2-17.58-6.76-23.25-5.55-4.8-14.72-9.32-22.1-10.29-7.08-.93-12.27,7.72-16.7,12.23Z"></path><path class="cls-3" d="M348.06,140.08c-1.71-.18-3.54,.15-4.89,1.23-1.22,.98-1.93,2.47-2.25,4-.56,2.66,.02,5.57,1.7,7.7,3,3.79,10.69,4.46,12.63-.85,.81-2.2-.21-4.78-.93-6.85-1.2-3.47-2.41-4.81-6.27-5.22Z"></path></g><g id="X_and_-2"><path class="cls-3" d="M338.3,95.5c2.05-.49,3.8-1.8,5.71-2.7,1.91-.9,4.3-1.34,6.04-.14,2.57,1.77,1.97,5.91-.03,8.3-2,2.39-4.94,3.82-7.11,6.06-3.97,4.09-4.8,10.21-5.43,15.88,2.26,.54,4.66,.48,6.89-.17-.33-5.23,1.8-10.57,5.65-14.14,2.89-2.69,6.58-4.33,9.76-6.67,4.01-2.95,7.37-7.76,6.3-12.63-1.05-4.79-6.17-7.81-11.07-8.09-4.15-.23-9.82,.91-13.46,3.03-3.49,2.03-2.83,7.7-3.25,11.26Z"></path><path class="cls-3" d="M337.51,127.04c-.83,.51-1.54,1.29-1.77,2.24-.21,.86,0,1.78,.38,2.57,.67,1.38,1.93,2.49,3.42,2.86,2.65,.66,6.33-1.7,5.37-4.75-.4-1.26-1.75-2.07-2.79-2.75-1.74-1.14-2.75-1.32-4.62-.17Z"></path></g></g><g id="cat"><path class="cls-7" d="M391.05,431.15c3.16,.81,6.74,2.16,7.71,5.27,1.3,4.2-3.07,7.86-6.96,9.88-29.58,15.37-66.67,15.31-96.19-.17-23.14-12.13,25.33-19.36,33.81-19.8,20.31-1.04,41.92-.26,61.63,4.82Z"></path><path class="cls-6" d="M293.01,377.43c1.3,1.93,3.7,2.72,5.94,3.34,6.11,1.7,12.3,3.12,18.54,4.25,2.63,.48,5.41,.89,7.94,0,3.37-1.2,5.53-4.45,7.21-7.61,3.78-7.11,6.41-14.77,9.02-22.39,1.11-3.24,2.12-7.13,0-9.82-2.31-2.93-6.81-2.53-10.42-1.6-9.63,2.49-20.27,6.81-27.81,13.47-2.71,2.39-4.53,5.64-6.81,8.41-2.54,3.1-6.41,7.78-3.61,11.95Z"></path><path class="cls-6" d="M299.04,375.83c1.01,.26,2.15,.49,3.05-.03,1.67-.96,1.23-3.46,.56-5.27-1.56-4.25-3.43-8.86-7.43-10.98-3.78-2.01-20.92-1.31-19.13,5.79,.77,3.05,7.8,5.11,10.4,6.22,4.07,1.73,8.26,3.16,12.54,4.27Z"></path><path class="cls-6" d="M320.97,345.44c-.05,1.41,.01,2.96,.96,4.02,1.29,1.44,3.56,1.27,5.47,.98,2.94-.45,6.25-1.11,7.86-3.62,1.05-1.63,1.12-3.67,1.16-5.61,.06-3.11-.23-24.73-5.88-22.34-3,1.27-5.55,8.99-6.59,11.75-1.78,4.74-2.8,9.76-2.98,14.82Z"></path><path class="cls-2" d="M311.02,368.95c.25,.36,.57,.74,1.01,.79,.47,.05,.91-.33,1.07-.78s.11-.94,.03-1.41c-.16-.98-1.88-7.12-3.37-5.6-1.59,1.62,.3,5.58,1.26,7Z"></path><path class="cls-2" d="M319.71,363.47c.23,.42,.62,.89,1.08,.76,.38-.1,.53-.55,.59-.93,.16-.97-.09-5.71-1.83-5.24-2.16,.58-.37,4.47,.15,5.42Z"></path><path class="cls-1" d="M313.19,376.42c.8,.77,1.63,1.55,2.66,1.96,1.03,.41,2.32,.38,3.13-.38,.48-.45,.73-1.09,.88-1.72,.36-1.5,.95-4.11-1.37-3.14-.56,.24-5.4,3.2-5.31,3.28Z"></path><path class="cls-6" d="M324.85,389.12c-2.92,2.1-4.58,5.5-5.97,8.81-4.85,11.5-7.94,24.01-6.74,36.43,.23,2.41,.67,4.9,2.09,6.85,1.3,1.77,3.31,2.93,5.42,3.52,2.11,.59,4.34,.67,6.53,.62,7.12-.17,14.13-1.66,21.1-3.13,2.56-.54,5.35-1.22,6.94-3.3,1.07-1.39,1.42-3.24,1.29-4.99-.14-1.75-.72-3.44-1.38-5.07-2.89-7.21-7.12-13.75-10.98-20.46-1.94-3.38-3.8-6.81-5.34-10.38-.75-1.73-1.43-3.5-1.99-5.31-.33-1.08-.48-2.43-1.16-3.36-2.17-2.94-7.28-2.05-9.82-.23Z"></path><path class="cls-6" d="M388.92,386.68c-2.46,5.08-3.36,10.74-4.17,16.33-.81,5.58-1.56,11.25-3.76,16.45-2.2,5.19-6.08,9.95-11.38,11.87-3.95,1.43-8.3,1.18-12.45,.59-.87-.12-1.76-.26-2.61-.06-.85,.2-1.67,.83-1.8,1.7-.12,.81,.39,1.61,1.07,2.07s1.51,.63,2.32,.77c7.57,1.34,15.6,.82,22.59-2.38,6.99-3.2,12.83-9.23,14.96-16.62,2.16-7.49,.6-16.11,4.76-22.7,1.42-2.24,3.4-4.06,5.07-6.12,1.67-2.06,3.09-4.53,3.01-7.18-.06-2.17-1.33-4.09-3.23-5.09-1.89-.99-3.45-.32-5.26,.59-4.07,2.04-7.16,5.74-9.12,9.79Z"></path><path class="cls-6" d="M303.71,384.44c-.37,.04-.78,.11-1,.41-.3,.38-.16,.93,.04,1.37,.75,1.71,2.12,3.09,3.67,4.12,1.55,1.03,3.29,1.74,5.04,2.4,.65,.25,1.33,.49,2.02,.48,.7,0,1.43-.32,1.76-.94,.95-1.83-2.18-4.83-3.5-5.74-2.32-1.6-5.21-2.38-8.02-2.09Z"></path><path class="cls-6" d="M326.26,443.3c-.49,.39-.98,.92-.93,1.54,.05,.7,.74,1.15,1.38,1.44,3.16,1.4,6.8,1.25,10.21,.63,1.69-.31,3.57-1.19,2.85-3.21-.45-1.25-1.72-2.4-2.99-2.73-3.24-.84-7.99,.29-10.52,2.33Z"></path><path class="cls-6" d="M348.62,440.37c-.44,.31-.91,.78-.81,1.31,.09,.47,.56,.75,1,.94,1.7,.75,12.65,2.22,11.35-2-.47-1.51-3.85-1.92-5.12-2-2.25-.15-4.57,.45-6.42,1.76Z"></path></g><g id="character-2"><path class="cls-7" d="M56.11,448.89c16.62,6.04,33.48,11.12,51.02,8.88,17.54-2.23,34.86-7.11,52.54-6.77,12.04,.24,23.89,2.9,35.87,4.08,11.98,1.18,24.6,.75,35.3-4.77,3.44-1.78,7.05-5.02,6.22-8.81-.68-3.12-4.03-4.79-7.07-5.76-24.66-7.88-50.32,1.86-74.55,6.68-10.86,2.16-24.37,5.29-35.07,1.13-9.72-3.78-16.11-7.86-27.28-7.65-6.87,.13-47.64,9.11-36.98,12.98Z"></path><path class="cls-6" d="M107.05,433.31c-1.05-3.05-2.93-5.81-5.4-7.9,37.59-35.86,71.1-77.27,90.28-125.55-.33,.83,12.76,8.56,13.79,10.02,3.09,4.39-2.27,9.17-4.81,12.83-6.61,9.52-13.43,18.89-20.47,28.09-14.26,18.64-29.4,36.61-45.35,53.83-9.09,9.81-18.43,19.37-28.03,28.68Z"></path><path class="cls-5" d="M104.14,439.18c-2.22,3.65-6.16,6.58-10.43,6.37-3.55-.17-6.65-2.41-9.28-4.8-8.42-7.66-14.41-17.94-16.94-29.04-.23-1-.41-2.11,.12-2.98,1.17-1.92,4.14-.79,5.89,.62,5.14,4.15,9.48,9.26,14.9,13.04,5.37,3.74,9.93,3.04,15.64,4.62,5.71,1.58,2.48,8.26,.09,12.18Z"></path><g><path class="cls-4" d="M257.67,126.17c1.76,2.43,4.48,4.26,7.47,4.5,2.99,.24,6.16-1.32,7.42-4.05,1.26-2.72,.17-6.43-2.55-7.69-2.01-.94-4.46-.47-6.36,.67-1.9,1.14-3.37,2.87-4.78,4.59"></path><path class="cls-6" d="M222.67,42.18c-4.73,1.32-8.58,5.3-10.67,9.89-2.1,4.59-2.63,9.73-2.45,14.72,.44,12.49,5.26,24.59,13.38,33.6,3.58,3.97,8.34,7.54,13.71,7.04,6.97-.65,11.85-7.76,14.28-14.59,3.61-10.15,5.85-24.84-.68-33.81-5.82-7.99-16.63-19.9-27.56-16.84Z"></path><path class="cls-4" d="M266.12,122.82c-5.28,14.46-12.96,28.31-24.14,38.89-4.31,4.08-10.33,7.85-15.85,5.66-4.75-1.89-6.85-7.32-8.34-12.21-3.48-11.41-6.44-23.08-7.01-34.99-.57-11.91,1.36-24.16,7.16-34.59,5.8-10.42,15.76-18.82,27.45-21.19,9.73-1.97,29.47,1.48,31.63,13.59,1.09,6.11-2.64,15.21-4.03,21.15-1.87,8.01-4.04,15.95-6.87,23.68Z"></path><path class="cls-6" d="M232.31,59.02c-5.17,2.34-10.94,6.27-10.6,11.93,.2,3.31,2.53,6.07,4.89,8.4,13.49,13.32,32,21.42,50.94,22.3,18.94,.87,38.12-5.49,52.77-17.51,5.64-4.62,15.39-14.3,11.29-22.48-3.33-6.64-14.4-8.59-20.77-10.22-18.84-4.8-38.73-5.45-57.86-1.97-10.56,1.92-20.89,5.11-30.66,9.54Z"></path><path class="cls-6" d="M244.48,117.13c.78-1.28,1.08-3.21-.14-4.08-.91-.65-2.24-.31-3.05,.45-.81,.76-1.22,1.85-1.61,2.89-.25,.66-.49,1.33-.5,2.03,0,.7,.26,1.45,.86,1.82,.74,.46,1.74,.2,2.4-.37,.65-.57,1.03-1.38,1.4-2.17"></path><path class="cls-6" d="M257.09,120.46c1.02-.82,.7-2.73-.52-3.18-.95-.35-2.05,.15-2.69,.93-.65,.78-.95,1.78-1.23,2.76-.22,.76-.45,1.56-.3,2.35,.14,.78,.78,1.54,1.58,1.53,.86,0,1.47-.83,1.82-1.61,.36-.78,.66-1.67,1.4-2.1"></path><path class="cls-4" d="M219.05,104.98c1.96-3.94,.38-9.27-3.4-11.51-3.79-2.24-9.22-1.06-11.73,2.56s-1.72,9.12,1.7,11.88c3.42,2.77,8.97,2.38,11.97-.84"></path><path class="cls-6" d="M225.48,145.65c-1.19-.97-2.66-1.92-2.89-3.44-.16-1.07,.39-2.17,1.24-2.85,.85-.68,1.94-.98,3.02-1.07,3.44-.27,6.96,1.73,8.49,4.82,1.53,3.1,.97,7.1-1.34,9.67-2.24,2.48-3.4,.62-4.35-1.54s-2.34-4.1-4.17-5.59Z"></path></g><path class="cls-1" d="M236.93,176.18c5.82,2.58,8.06,9.54,9.52,15.75,8.46,36.1,12,73.26,12.25,110.34,.04,6.03-.48,13.02-5.41,16.49-5.17,3.64-12.26,1.39-18.12-.98-10.26-4.14-20.52-8.28-30.79-12.41-5.43-2.19-10.91-4.41-15.69-7.78-4.78-3.37-8.87-8.06-10.39-13.71-2.22-8.27,1.3-16.88,4.75-24.72,8.24-18.73,16.48-37.46,24.72-56.19,4.63-10.53,12.47-34.17,29.17-26.78Z"></path><path class="cls-6" d="M190.63,280.14c-7.12-3.37-16.08-5.44-22.47-.84-6.55,4.71-7.3,14.1-6.65,22.14,2.9,36.07,20.94,68.93,38.57,100.53,2.26-2.09,4.52-4.18,6.78-6.26-7.76-16.64-15-33.52-21.7-50.61-4.3-10.96-8.42-22.2-9.12-33.95-.17-2.83,0-6.01,2.04-7.97,2.04-1.96,5.38-1.97,7.94-.78,2.56,1.19,4.52,3.36,6.35,5.51,3.48,4.08,6.84,8.33,11.07,11.62,4.23,3.29,9.53,5.58,14.86,5,4.38-.47,11.86-4.75,11.18-10.17-.33-2.68-1.44-2.24-3.4-3.53-2.46-1.63-3.55-2.6-5.36-5.11-7.82-10.89-17.93-19.82-30.1-25.58Z"></path><path class="cls-5" d="M215.8,397.77c2.76,.78,4.31,3.74,3.43,6.47-4.04,12.55-9.92,24.52-17.38,35.39-.64,.93-1.83,1.96-2.73,1.27-.56-.43-.55-1.26-.48-1.97,.74-8.1,1.48-16.21,2.22-24.31,.34-3.71-.02-10.44,.64-15.89,.43-3.58,4.37-5.59,7.53-3.86,2.17,1.19,4.38,2.21,6.77,2.89Z"></path><path class="cls-2" d="M203.34,319.4c-.11,0-.22-.04-.32-.11-4.99-4.09-9.47-8.79-13.32-13.96-.17-.22-.12-.53,.1-.7,.22-.16,.53-.12,.7,.1,3.8,5.11,8.22,9.75,13.15,13.78,.21,.18,.24,.49,.07,.7-.1,.12-.24,.18-.39,.18Z"></path><path class="cls-2" d="M185,344.72c-.21,0-.4-.13-.47-.33l-6.11-17.31c-.09-.26,.04-.55,.31-.64,.26-.09,.55,.05,.64,.31l6.11,17.31c.09,.26-.04,.55-.31,.64-.05,.02-.11,.03-.17,.03Z"></path><path class="cls-2" d="M176.36,356.58c-.19,0-.38-.11-.46-.3-2.03-4.69-3.98-9.48-5.8-14.26-.1-.26,.03-.55,.29-.65,.26-.1,.55,.03,.65,.29,1.81,4.76,3.76,9.54,5.78,14.22,.11,.25,0,.55-.26,.66-.07,.03-.13,.04-.2,.04Z"></path><path class="cls-1" d="M109.94,206.76c-2.54,8.2-3.69,17.97,1.73,24.62,6.72,8.26,19.51,7.24,29.81,4.53,31.08-8.2,59.78-25.22,81.89-48.54,1.19-1.25,2.44-2.97,1.74-4.54-1.11-2.48-4.85-1.08-6.99,.58-22.17,17.26-48.15,29.59-75.54,35.85-4.59,1.05-10.44,1.45-12.96-2.53-1.93-3.04-.74-7.03,.64-10.36,5.1-12.28,12.26-23.71,21.09-33.66-3.24-2.54-9.03-9.3-13.48-8.65-4.06,.6-9.66,9.25-11.99,12.25-7.07,9.09-12.52,19.45-15.93,30.46Z"></path><path class="cls-4" d="M139.33,135.94c1.88-11.3,8-22.52,18.28-27.58,2.29-1.13,4.84-1.94,7.37-1.62,2.53,.32,5.01,2.01,5.64,4.48,.63,2.47-.62,4.98-1.83,7.22-4.57,8.44-9.14,16.88-13.7,25.32,8.69-.36,17.46,3.39,23.2,9.93,4.08,4.65,6.61,11.58,3.71,17.05-1.58,2.97-4.47,4.98-7.26,6.88-9.85,6.7-27.5,13.68-34.08-1.31-4.35-9.9-2.98-30.31-1.31-40.37Z"></path><path class="cls-2" d="M172.22,177.45c-.21,0-.4-.13-.47-.34-3.37-9.7-12.04-17.32-22.1-19.39-.27-.06-.45-.32-.39-.59,.06-.27,.33-.44,.59-.39,10.4,2.15,19.37,10.01,22.84,20.04,.09,.26-.05,.55-.31,.64-.05,.02-.11,.03-.16,.03Z"></path><g><path class="cls-6" d="M242.95,224.67c-.65-1.21-1.37-2.49-2.59-3.13-1.54-.81-3.42-.35-5.09,.12-7.18,2.03-14.38,4.06-21.36,6.72-2.62,1-5.55,2.49-6.09,5.24-.42,2.14,.82,4.22,2,6.05,6.08,9.45,12.43,19.14,21.7,25.49,3.02,2.07,6.49,3.79,10.16,3.69,2.24-.06,4.4-.8,6.52-1.53,2.5-.86,5-1.72,7.5-2.59,2.16-.75,4.54-1.67,5.55-3.72,.81-1.64,.52-3.65-.31-5.28-1-1.95-2.75-3.28-3.98-5.06-1.72-2.51-2.98-5.47-4.42-8.16-3.19-5.95-6.39-11.89-9.58-17.84Z"></path><path class="cls-2" d="M254.96,258.42c-.17,0-.34-.09-.43-.25l-16.3-28.3c-.54-.94-1.15-2.01-2.09-2.61-1.66-1.07-3.92-.51-5.92,.1-6.09,1.86-12.24,3.87-18.25,5.97-.26,.09-.55-.05-.64-.31-.09-.26,.05-.55,.31-.64,6.03-2.1,12.18-4.11,18.29-5.98,2.21-.67,4.73-1.29,6.75,.02,1.14,.73,1.84,1.96,2.41,2.95l16.3,28.3c.14,.24,.06,.54-.18,.68-.08,.05-.17,.07-.25,.07Z"></path></g><path class="cls-4" d="M258.87,235c-2.52-1.53-6.14-2.42-8.16-.26-1.91,2.04-.98,5.48,.88,7.56,1.86,2.08,4.43,3.42,6.3,5.49-8.89,2.12-17.78,4.23-26.67,6.35-1.78,.42-3.6,.86-5.18,1.79-1.58,.93-2.92,2.44-3.19,4.26-.46,3.13,2.36,5.85,5.31,7.01s6.23,1.39,9.06,2.81c2.76,1.38,4.87,3.79,7.54,5.35,5.48,3.2,12.67,2.3,18.13-.94,4.62-2.74,11.61-8.81,11.95-14.64,.31-5.49-4.63-12.65-7.69-16.89-2.25-3.11-4.97-5.89-8.27-7.89Z"></path><path class="cls-2" d="M237.26,270.68c-.24,0-.45-.18-.49-.42-.04-.27,.14-.53,.42-.57,8.56-1.36,16.97-4.51,24.32-9.1,.23-.14,.54-.07,.69,.16,.15,.23,.08,.54-.16,.69-7.46,4.66-16,7.86-24.7,9.24-.03,0-.05,0-.08,0Z"></path><path class="cls-1" d="M237.21,180.97c1.63,1.71,3.95,2.53,6.17,3.33,10.34,3.71,20.43,8.15,30.15,13.27,7.38,3.89,14.64,8.25,20.43,14.26s10.02,13.86,10.24,22.2-3.39,20.93-11.72,20.52c-3.74-.18-15.05-2.36-21.32-7.11-.65,8.72-1.31,17.43-1.96,26.15,10.1,.23,20.39,.43,30.07-2.45,9.68-2.87,18.84-9.37,22.3-18.86,4.96-13.57-2.87-28.49-12.43-39.34-10.57-11.99-23.65-21.75-38.08-28.6-7.34-3.49-14.9-5.48-22.56-8.04-3.41-1.14-19.97-4.48-11.29,4.66Z"></path></g></svg>