<svg transform="scale(1)" id="_0974_Password_1" xmlns="http://www.w3.org/2000/svg" viewBox="0 0 500 500" class="show_show__wrapper__graphic__5Waiy "><title>React</title><defs><style>.cls-1{fill:#dfb7a7;}.cls-2{fill:#fff;}.cls-3{fill:#424140;}.cls-4{fill:#2a9f65;}.cls-5{fill:#322f2f;}.cls-6{fill:#424140;}.cls-7{fill:#e6e7e8;}.cls-8{fill:#bcbec0;}</style></defs><g id="table"><path class="cls-5" d="M446.43,352.9c-71.9-1.14-143.8-2-215.71-2.82-2.22-.06-4.45-.12-6.67-.17-11.56-.28-23.12-.53-34.68-.75-6-.37-13.43-.72-17.94-.32-5.46-.09-10.92-.18-16.38-.26-45.37-.66-90.75-.89-136.12-.69-3.28,.01-7.49,.69-8.17,3.68-.87,3.85,4.92,5.6,9.14,5.66,71.88,1.13,143.76,1.97,215.65,2.78,2.24,.06,4.48,.12,6.72,.17,11.68,.28,23.35,.54,35.03,.76,5.84,.35,12.93,.67,17.37,.32,5.53,.09,11.07,.18,16.6,.26,45.37,.67,90.75,.91,136.12,.71,3.28-.01,7.49-.69,8.17-3.68,.87-3.85-4.92-5.6-9.14-5.66Z"></path></g><g id="text"><path class="cls-7" d="M370.81,393.69c-3.81-.58-8.06-1.15-12.34-.67-3.95,.44-6.93,1.67-9.62,2.84-21.91,9.49-42.27,19.21-60.97,29.07-1.1,.58-2.24,1.22-2.08,1.87,.18,.73,1.94,1.23,3.59,1.65,22.03,5.63,46.01,10.09,71.16,13.27,2.1,.27,4.42,.52,6.75,.27,2.54-.28,4.4-1.09,6.04-1.84,21.13-9.73,41.85-19.75,62.16-30.07,2.56-1.3,2.07-2.95-1.14-3.72-2.79-.68-5.86-1.25-8.6-1.93-5.66-1.39-11.52-2.72-17.54-3.99-11.84-2.5-24.34-4.75-37.41-6.75Z"></path><path class="cls-8" d="M423.62,412.14c-.08,0-.15,0-.23-.03-21.63-5.08-45.04-9.48-69.57-13.08-.55-.08-.92-.59-.84-1.13,.08-.55,.59-.92,1.13-.84,24.59,3.6,48.05,8.01,69.74,13.11,.54,.13,.87,.66,.75,1.2-.11,.46-.52,.77-.97,.77Z"></path><path class="cls-8" d="M416.08,414.71c-.07,0-.14,0-.21-.02-21.53-4.54-43.98-8.82-66.72-12.74-.54-.09-.91-.61-.82-1.16,.09-.54,.62-.91,1.16-.82,22.77,3.92,45.24,8.21,66.79,12.75,.54,.11,.89,.64,.77,1.18-.1,.47-.51,.79-.98,.79Z"></path><path class="cls-8" d="M385.83,412.09c-.07,0-.14,0-.21-.02-13.73-2.91-28.33-5.49-43.39-7.68-.55-.08-.93-.59-.85-1.13,.08-.55,.58-.92,1.13-.85,15.11,2.19,29.75,4.78,43.52,7.7,.54,.11,.89,.65,.77,1.19-.1,.47-.51,.79-.98,.79Z"></path><path class="cls-8" d="M377.86,430.7c-.07,0-.15,0-.22-.02-20.49-4.6-41.97-8.92-63.83-12.86-.54-.1-.91-.62-.81-1.16,.1-.54,.62-.91,1.16-.81,21.89,3.94,43.39,8.27,63.92,12.87,.54,.12,.88,.66,.76,1.19-.1,.47-.52,.78-.97,.78Z"></path><path class="cls-8" d="M352.44,428.9c-.07,0-.14,0-.21-.02-13.79-2.96-28.38-5.65-43.37-8-.55-.09-.92-.6-.83-1.14,.08-.54,.59-.92,1.14-.83,15.03,2.35,29.66,5.04,43.48,8.02,.54,.12,.88,.65,.77,1.19-.1,.47-.52,.79-.98,.79Z"></path><path class="cls-8" d="M342.46,431.23c-.07,0-.14,0-.22-.02-12.52-2.77-25.93-5.2-39.88-7.21-.55-.08-.93-.59-.85-1.13,.08-.55,.59-.93,1.13-.85,13.99,2.02,27.46,4.46,40.02,7.24,.54,.12,.88,.65,.76,1.19-.1,.47-.52,.78-.98,.78Z"></path></g><g id="books"><g id="book-1"><path class="cls-7" d="M244.22,418.28c-10.91,7.66-25.29,13.77-39.32,19.72-2.78,1.18-5.65,2.38-9.16,2.94-3.51,.56-7.87,.34-10.37-1.01-1.96-1.06-2.41-2.62-1.8-3.99,.62-1.37,2.17-2.6,3.81-3.76,6.18-4.36,14-8.15,22.5-11.58,4.38-1.77,8.95-3.44,13.61-5.06,3.87-1.35,9.02-3.84,13.6-4.51,3.54-.51,3.66,.89,4.44,2.3,.38,.7,3.43,4.43,2.7,4.94Z"></path><path class="cls-5" d="M134.42,394.26c-7.94,3.53-16.4,7.64-16.5,13.01-.09,4.6,6.08,8.75,12.49,12.18,14.23,7.62,31.08,13.73,47.59,19.71,4.01,1.45,8.45,2.97,13.39,2.9,5.01-.07,9.15-1.76,12.86-3.36,15.1-6.53,30.42-13.16,45.98-19.89-2.19-.56-4.39-1.12-6.59-1.69-12.61,8.36-27.63,15.62-44.34,21.52-1.74,.61-3.55,1.22-5.66,1.45s-4.61-.03-5.91-.88c-2.39-1.55,.52-3.62,3.3-4.97,17.79-8.59,36.43-17.1,55.89-25.51-24.84-9.4-47.51-20.8-67.16-33.87,3.74-1.55-16.96,6.78-19.19,7.77-8.79,3.91-17.5,7.78-26.14,11.63Z"></path><path class="cls-3" d="M191.97,432.65c-3.29,.82-6.59,1.85-8.12,3.43-1.53,1.58-.52,3.83,2.93,4.52-16.42-5.33-32.13-10.95-46.27-17.27-6.06-2.71-11.94-5.61-15.6-9.18-3.14-3.06-4.61-6.84-2.44-10.2,1.2-1.86,1.82-1.34,3.65-.09,2.14,1.46,4.86,2.69,7.44,3.97,11.43,5.65,23.53,11.08,36.25,16.27,7.18,2.93,14.57,5.78,22.16,8.56Z"></path><path class="cls-8" d="M197.41,436.54c-.18,0-.35-.1-.44-.27-.13-.25-.03-.55,.21-.67,12.86-6.7,27.15-12.97,42.45-18.64,.26-.1,.55,.04,.64,.29,.1,.26-.04,.55-.29,.64-15.27,5.66-29.51,11.91-42.34,18.59-.07,.04-.15,.06-.23,.06Z"></path><path class="cls-8" d="M207.59,428.44c-.19,0-.38-.11-.46-.31-.11-.25,.01-.55,.27-.66l11.48-4.85c.25-.11,.55,.01,.66,.27,.11,.25-.01,.55-.27,.66l-11.48,4.85c-.06,.03-.13,.04-.19,.04Z"></path></g></g><g id="plant"><path class="cls-6" d="M89.2,336.53h-.41c-.28,0-.5-.22-.5-.5s.22-.5,.5-.5h.41c.28,0,.5,.22,.5,.5s-.22,.5-.5,.5Z"></path><path class="cls-6" d="M59.46,338.98c-1.33,3.42-.46,7.25,.51,10.79,1.6,5.83,3.43,11.6,5.49,17.29,1.63,4.5,3.68,9.29,7.83,11.68,3.28,1.88,7.26,1.91,11.04,1.88,6.55-.05,13.09-.1,19.64-.14,5.86-.04,12.17-.23,16.88-3.72,4.35-3.23,6.42-8.64,8.1-13.8,2.06-6.34,3.87-12.76,5.41-19.25,.75-3.14,1.32-6.8-.71-9.32-1.59-1.97-4.3-2.57-6.81-2.98-13.55-2.19-26.79-1.71-40.35-.14-8.54,.99-22.98-2.68-27.03,7.72Z"></path><path class="cls-4" d="M80.8,275.65c.39-3.36,1.03-6.82,2.94-9.61,1.9-2.8,5.37-4.78,8.67-4,4.11,.97,6.2,5.47,7.44,9.51,4.95,16.13,5.66,33.54,2.04,50.02,1.37-6.85,2.94-13.73,5.94-20.04,3-6.31,7.58-12.07,13.74-15.35,3.11-1.66,7.16-2.57,10.01-.48,3.93,2.88,2.81,8.97,1.02,13.5-4.43,11.26-10.44,21.91-17.79,31.53-3.26,4.27-7.06,8.53-12.19,10.12-8.37,2.6-16.96-2.64-24.16-7.64-8.2-5.69-16.6-11.57-22.18-19.85-2.26-3.36-3.98-7.95-1.7-11.29,1.7-2.49,5.14-3.3,8.09-2.66,2.94,.64,5.48,2.45,7.83,4.34,3.42,2.75,6.63,5.75,9.6,8.98,2.56,2.78,5.03,7.54,8.16,9.36-5.51-15.37-9.41-29.86-7.46-46.43Z"></path><path class="cls-2" d="M107.29,346.28c-1.02,0-2.08-.04-3.17-.09-6.12-.29-12.32-.76-18.42-1.38-4.78-.49-9.98-1.53-12.4-5.54-.08-.12-.09-.28-.05-.41s.15-.25,.28-.31l5.26-2.17c.26-.1,.55,.02,.65,.27,.11,.26-.02,.55-.27,.65l-4.7,1.93c2.33,3.23,7.01,4.13,11.33,4.57,6.08,.62,12.26,1.09,18.36,1.38,3,.14,5.69,.21,8.27-.48,2.67-.71,4.8-2.21,5.93-4.15l-4.76-1.19c-.27-.07-.43-.34-.36-.61,.07-.27,.34-.43,.61-.36l5.37,1.34c.15,.04,.27,.14,.33,.27,.06,.13,.07,.29,0,.43-1.15,2.47-3.65,4.38-6.86,5.23-1.76,.47-3.54,.61-5.41,.61Z"></path><path class="cls-2" d="M97.69,333.57c-.22,0-.42-.14-.48-.36-6.28-21.33-8.65-43.38-7.04-65.56,.02-.28,.27-.48,.54-.46,.28,.02,.48,.26,.46,.53-1.59,22.05,.76,43.99,7.01,65.2,.08,.26-.07,.54-.34,.62-.05,.01-.09,.02-.14,.02Z"></path><path class="cls-2" d="M105.11,329.86s-.09,0-.14-.02c-.26-.08-.42-.36-.34-.62,3.66-12.53,10.37-24.13,19.4-33.56,.19-.2,.51-.21,.71-.02,.2,.19,.21,.51,.02,.71-8.92,9.31-15.55,20.77-19.17,33.15-.06,.22-.26,.36-.48,.36Z"></path><path class="cls-2" d="M87.32,329.33c-.09,0-.18-.02-.26-.07-9.15-5.64-17.33-13.21-23.67-21.9-.16-.22-.11-.54,.11-.7,.22-.16,.54-.11,.7,.11,6.26,8.58,14.35,16.06,23.39,21.64,.23,.14,.31,.45,.16,.69-.09,.15-.26,.24-.43,.24Z"></path></g><g id="interface"><path class="cls-4" d="M173.27,121.9c-8.36,11.93-9.03,28.77-1.66,41.33,7.37,12.56,22.4,20.18,36.89,18.7,7.34-.75,14.49-3.71,19.99-8.63,10.07-9.01,13.6-24.13,10.05-37.16-3.28-12.06-14.54-27.68-27.58-30.22-13.9-2.7-29.74,4.64-37.69,15.98Z"></path><path class="cls-8" d="M140.58,248.04c-1.17,2.63-.46,5.97,1.69,7.89s5.54,2.26,8.02,.81,3.85-4.58,3.23-7.39c-.56-2.52-3.28-5.34-5.88-5.84-2.74-.52-6.02,2.2-7.06,4.53Z"></path><path class="cls-8" d="M162.45,248.04c-1.17,2.63-.46,5.97,1.69,7.89s5.54,2.26,8.02,.81c2.48-1.45,3.85-4.58,3.23-7.39-.56-2.52-3.28-5.34-5.88-5.84-2.74-.52-6.02,2.2-7.06,4.53Z"></path><path class="cls-7" d="M126.98,204.93c-3.43,4.19-3.68,10.5,.15,14.49,3.87,4.03,10.44,4.89,16.44,5.4,33.42,2.85,68.79,3.8,105.8,2.13,7.54-.34,15.52-.88,21.86-4.25,6.39-3.39,10.25-10.57,6.33-16.03-2.08-2.9-5.93-4.77-9.9-5.68-3.96-.9-8.09-.97-12.14-1.02-38.74-.53-75.43-.99-110.21-1.52-6.95-.11-14.09,1.3-18.32,6.48Z"></path><path class="cls-7" d="M126.98,241.81c-3.43,4.19-3.68,10.5,.15,14.49,3.87,4.03,10.44,4.89,16.44,5.4,33.42,2.85,68.79,3.8,105.8,2.13,7.54-.34,15.52-.88,21.86-4.25,6.39-3.39,10.25-10.57,6.33-16.03-2.08-2.9-5.93-4.77-9.9-5.68-3.96-.9-8.09-.97-12.14-1.02-38.74-.53-75.43-.99-110.21-1.52-6.95-.11-14.09,1.3-18.32,6.48Z"></path><path class="cls-8" d="M140.58,248.04c-1.17,2.63-.46,5.97,1.69,7.89s5.54,2.26,8.02,.81,3.85-4.58,3.23-7.39c-.56-2.52-3.28-5.34-5.88-5.84-2.74-.52-6.02,2.2-7.06,4.53Z"></path><path class="cls-8" d="M162.45,248.04c-1.17,2.63-.46,5.97,1.69,7.89s5.54,2.26,8.02,.81c2.48-1.45,3.85-4.58,3.23-7.39-.56-2.52-3.28-5.34-5.88-5.84-2.74-.52-6.02,2.2-7.06,4.53Z"></path><path class="cls-8" d="M228.66,248.04c-1.17,2.63-.46,5.97,1.69,7.89,2.14,1.92,5.54,2.26,8.02,.81s3.85-4.58,3.23-7.39c-.56-2.52-3.28-5.34-5.88-5.84-2.74-.52-6.02,2.2-7.06,4.53Z"></path><path class="cls-8" d="M250.53,248.04c-1.17,2.63-.46,5.97,1.69,7.89,2.14,1.92,5.54,2.26,8.02,.81s3.85-4.58,3.23-7.39c-.56-2.52-3.28-5.34-5.88-5.84-2.74-.52-6.02,2.2-7.06,4.53Z"></path><path class="cls-8" d="M185.23,248.04c-1.17,2.63-.46,5.97,1.69,7.89,2.14,1.92,5.54,2.26,8.02,.81,2.48-1.45,3.85-4.58,3.23-7.39-.56-2.52-3.28-5.34-5.88-5.84-2.74-.52-6.02,2.2-7.06,4.53Z"></path><path class="cls-8" d="M207.1,248.04c-1.17,2.63-.46,5.97,1.69,7.89,2.14,1.92,5.54,2.26,8.02,.81s3.85-4.58,3.23-7.39c-.56-2.52-3.28-5.34-5.88-5.84-2.74-.52-6.02,2.2-7.06,4.53Z"></path><path class="cls-3" d="M218.5,170.43c3.09,1.76,6.65,2.68,10.2,2.65,1.84-.02,4.23,.05,4.81,1.79,.36,1.08-.25,2.23-.91,3.16-4.45,6.26-12.03,9.87-19.69,10.58-7.65,.71-15.36-1.23-22.39-4.34-3.36-1.49-7.05-3.93-7.12-7.6-.07-3.94,3.89-6.71,6.55-9,2.47-2.13,5.04-5.36,8.08-6.69,3.14-1.38,6.98,.07,9.77,1.66,1.48,.84,9.43,8.37,10.7,7.79Z"></path><path class="cls-3" d="M208.78,163.42c.46,2.16-.21,4.53-1.74,6.12-1.79,1.86-4.45,2.54-6.99,2.96-3.01,.51-6.25,.75-8.98-.61-2.74-1.35-4.64-4.81-3.31-7.56,1.12-2.31,3.88-3.22,6.36-3.9,4.94-1.35,13.27-5.06,14.66,2.98Z"></path><path class="cls-3" d="M202.56,113.35c5.15-1.03,11.02,.36,14.46,3.95,3.15,3.31,3.92,7.84,5.99,11.76,1.77,3.35,4.6,6.59,4.24,10.26-.28,2.86-2.48,5.24-4.67,7.34-6.43,6.16-13.7,11.66-21.7,16.16-1.96,1.11-4.05,2.17-6.36,2.44-2.32,.26-4.93-.47-6.13-2.26-1.24-1.86-.64-4.19-.09-6.28,1.83-6.91,2.78-14.01,2.85-21.12,.04-3.56-.15-7.11-.55-10.65-.37-3.22,.18-4.52,2.79-6.89,2.5-2.27,5.66-4,9.17-4.71Z"></path><path class="cls-1" d="M185.7,156.93c.19,1.36,.43,2.74,1.22,3.96,.79,1.22,2.24,2.28,3.97,2.46,2.08,.22,3.98-.82,5.52-1.89,10.43-7.23,15.16-18.12,19.39-28.53,.46-1.13,.92-2.34,.54-3.5-.7-2.12-3.81-3.14-6.56-3.6-6.5-1.07-16.27-1.26-22.09,1.59-2.68,1.32-1.88,5.79-2.09,8.24-.28,3.31-.5,6.62-.54,9.94-.05,3.78,.11,7.56,.63,11.32Z"></path><path class="cls-3" d="M187.9,123.01c-2.69,1.78-4.7,4.09-6.69,6.37-.78,.9-1.6,1.96-1.19,3.02,.54,1.42,2.83,1.84,4.72,2.01,8.31,.74,16.61,1.48,24.92,2.22,2.17,.19,4.55,.35,6.32-.61,2.26-1.22,2.58-3.77,1.95-5.89-.95-3.18-3.64-6.05-7.25-7.75-3.74-1.75-7.87-1.66-12.02-2.05-4.03-.38-7.69,.64-10.76,2.68Z"></path><path class="cls-6" d="M191.1,140.29c-.77,.39-.87,1.43-.88,2.29,0,.38,0,.77,.12,1.13,.13,.36,.41,.69,.78,.76,.45,.09,.91-.21,1.14-.61,.23-.4,.29-.87,.34-1.33,.06-.53,.11-1.08-.07-1.57-.19-.5-.69-.92-1.21-.82"></path><path class="cls-6" d="M198.36,140.65c-.77,.39-.87,1.43-.88,2.29,0,.38,0,.77,.12,1.13,.13,.36,.41,.69,.78,.76,.45,.09,.91-.21,1.14-.61,.23-.4,.29-.87,.34-1.33,.06-.53,.11-1.08-.07-1.57-.19-.5-.69-.92-1.21-.82"></path><path class="cls-2" d="M194.77,169.44c-1.85,0-3.58-.44-5.03-1.32-.24-.14-.31-.45-.17-.69,.15-.24,.45-.31,.69-.17,2.32,1.41,5.49,1.56,8.69,.41,2.92-1.05,5.46-2.95,7.91-4.79,.22-.16,.53-.12,.7,.1,.17,.22,.12,.53-.1,.7-2.52,1.89-5.12,3.83-8.17,4.94-1.53,.55-3.06,.83-4.52,.83Z"></path><path class="cls-6" d="M197.95,153.12c-.36,.44-.8,.84-1.36,.97-.8,.18-1.77-.2-2.37,.34-.43,.39-.42,1.13-.05,1.59s.99,.64,1.57,.59,1.13-.29,1.64-.58c.74-.41,1.45-.92,2-1.57,.53-.63,1.3-2.01,.56-2.79s-1.6,.97-1.99,1.44Z"></path><path class="cls-3" d="M368.52,301.39l-3-.08,4.7-179.23c.04-1.75,.11-3.58,.18-5.48,.45-12.82,1-28.78-3.4-39.35-5.11-12.27-8.83-16.95-27.87-17.31l-1.21-.02-.04-.18c-15.09-1.16-209.83,1.08-223.69,1.54-9.08,.3-25.46,2.85-33.16,16.54-4.87,8.66-5.14,20.13-5.35,29.34l-4.29,185.78-3-.07,4.29-185.78c.22-9.55,.5-21.43,5.74-30.75,8.42-14.97,25.97-17.74,35.68-18.07,6.51-.22,61.66-.95,117.32-1.44,30.53-.27,56.22-.42,74.29-.44,23.26-.02,30.89,.04,33.49,.57v-.04c20.63,.4,25.16,6.14,30.58,19.16,4.65,11.17,4.08,27.49,3.63,40.61-.07,1.89-.13,3.71-.18,5.45l-4.7,179.23Z"></path><rect class="cls-3" x="85.44" y="93.61" width="272.53" height="3"></rect><path class="cls-3" d="M102.19,88.51c-.35,0-.71-.02-1.06-.07-4.56-.61-8.08-5.16-7.52-9.73h0c.39-3.18,2.14-5.58,4.93-6.74,3.04-1.27,6.84-.76,9.44,1.27,2.39,1.86,3.44,4.63,2.98,7.8-.62,4.2-4.58,7.47-8.77,7.47Zm-.1-14.23c-.83,0-1.66,.15-2.4,.46-1.24,.52-2.79,1.69-3.11,4.33h0c-.35,2.9,2.05,6.01,4.94,6.4,2.9,.39,6.03-1.97,6.46-4.86,.39-2.64-.79-4.17-1.85-5-1.11-.87-2.59-1.33-4.05-1.33Z"></path><path class="cls-3" d="M124.36,89.14c-.79,0-1.58-.11-2.32-.33-4.38-1.31-7.22-6.21-6.21-10.72h0c.77-3.43,2.79-5.79,5.7-6.63,3.08-.89,6.79,.16,9.22,2.61,2.36,2.38,3.16,5.63,2.19,8.9-.62,2.09-2.16,3.92-4.22,5.04-1.37,.74-2.88,1.12-4.36,1.12Zm-5.61-10.4c-.67,2.97,1.27,6.33,4.14,7.19,1.38,.41,2.98,.21,4.4-.55,1.37-.74,2.38-1.93,2.78-3.26,.89-3-.52-5.01-1.45-5.94-1.68-1.7-4.2-2.44-6.26-1.84-1.84,.53-3.08,2.05-3.61,4.4h0Z"></path><path class="cls-3" d="M146.14,89.07c-.34,0-.69-.02-1.03-.07-4.42-.56-8.1-4.72-8.2-9.27-.06-2.66,1.03-5.17,2.9-6.72,2.7-2.22,6.74-2.35,10.29-.33,3.54,2.02,5.49,5.55,4.95,8.99-.65,4.16-4.67,7.4-8.91,7.4Zm-1.27-14.82c-1.11,0-2.22,.3-3.16,1.08h0c-1.16,.95-1.85,2.61-1.81,4.34,.07,3.07,2.62,5.99,5.58,6.36,3.01,.38,6.14-1.92,6.59-4.82,.42-2.67-1.61-4.86-3.47-5.92-1.03-.59-2.38-1.04-3.73-1.04Z"></path></g><g id="character-2"><path class="cls-5" d="M305.56,288.44c-3.41,6.91-8.24,13.84-15.57,16.22-6.09,1.98-12.79,.42-19.09,1.57-7.58,1.38-14.33,7.09-16.48,14.48-2.15,7.39,.69,16.1,7.06,20.42,5.43,3.68,12.48,3.98,18.97,3.07,16.16-2.26,31.22-11.5,40.55-24.89,9.33-13.39,12.78-30.72,9.29-46.66-1.38-6.29-7.22-13.94-13.3-7.65-5.2,5.38-8.14,16.77-11.43,23.45Z"></path><path class="cls-3" d="M382,242.79c6.71,3.82,14.43,5.82,22.15,5.74,3.99-.04,9.17,.1,10.44,3.89,.78,2.35-.54,4.84-1.98,6.86-9.66,13.6-26.12,21.42-42.72,22.96-16.61,1.54-33.34-2.67-48.59-9.41-7.3-3.23-15.31-8.52-15.46-16.5-.16-8.56,8.44-14.56,14.21-19.53,5.36-4.63,10.95-11.63,17.54-14.52,6.82-2.99,15.15,.15,21.21,3.6,3.22,1.83,20.47,18.17,23.21,16.91Z"></path><path class="cls-4" d="M289.27,373.71c10.7,.79,21.39,1.59,32.09,2.39,4.58,.34,45.99-1.17,60.16-.64,1-5.61-.01-5.84-1.94-11.17-.47-1.3-1.09-2.54-1.8-3.73-1.86-12.11-5.36-24.22-6.21-36.47-1.23-17.71,3.14-35.31,3.71-53.05,.31-9.76-1.22-20.86-9.14-26.57-5.72-4.13-13.56-4.3-20.29-2.16-20.42,6.47-36.93,31.26-33.43,52.84,2.16,13.31,13.09,25.07,11.15,38.42-1.15,7.94-6.69,14.43-11.85,20.58-1.82,2.18-3.59,4.4-5.37,6.61-.94,.39-1.93,.9-2.99,1.54-5.18,3.16-9.93,7.01-14.14,11.4,.01,0,.03,0,.04,0Z"></path><path class="cls-1" d="M243.96,299c-2.59-5.49-4.57-12.54-10.43-14.11-.84,4.31-.06,8.91,2.15,12.7-4.28-3.31-9.31-6.02-14.72-6.19s-11.18,2.77-12.98,7.88c-2.03,5.74,1.57,12.27,6.73,15.49s11.48,3.88,17.56,4.21c6.08,.34,12.33,.47,17.93,2.86,4.27,1.82,7.92,4.86,12.1,6.89s9.41,2.94,13.32,.42c2.85-1.84,4.97-7.75,1.93-10.42-2.1-1.85-8.67-.92-11.5-1.66-9.47-2.49-17.88-9.17-22.08-18.06Z"></path><path class="cls-3" d="M372.93,322.39c2.19,2.75,.91,7.11-1.82,9.33-2.73,2.21-6.41,2.79-9.92,3.06-10.47,.82-20.98-.33-31.42-1.47-3.04-.33-9.9-1.28-6.59-5.6,2.47-3.22,11.17-.94,14.66-.92,11.82,.07,23.65-1.4,35.08-4.4Z"></path><path class="cls-5" d="M337.96,264.35c4.53-.75,9.41-.87,13.46,1.29,8.13,4.32,10.26,14.34,13.44,22.09,3.75,9.16,9.25,17.59,16.13,24.7,4.98,5.14,10.94,9.71,17.94,11.21,10.71,2.3,21.65-2.99,30.27-9.75,13.35-10.46,23.36-24.5,33.18-38.33,3.51-4.94,7.1-10.08,8.23-16.03,1.74-9.17-3.32-19.11-11.61-23.38-8.29-4.27-19.12-2.74-26.12,3.43-10.62,9.36-11.1,25.68-18.4,37.82-2.79,4.64-8.26,9.05-13.16,6.73-2.2-1.04-3.62-3.19-4.92-5.24-9.63-15.11-19.56-41.19-40.57-42.35-7.4-.41-14.47,3.05-20.66,7.14-12.05,7.97-24.64,19.86-30.69,33.22,5.89,.76,9-2.15,13.69-5.07,6.03-3.74,12.78-6.31,19.78-7.47Z"></path><path class="cls-3" d="M360.91,227.58c1,4.68-.46,9.83-3.79,13.28-3.88,4.03-9.66,5.5-15.17,6.43-6.53,1.1-13.56,1.62-19.5-1.31-5.94-2.93-10.06-10.44-7.18-16.4,2.42-5.02,8.43-6.99,13.81-8.46,10.73-2.93,28.81-10.99,31.82,6.47Z"></path><path class="cls-3" d="M347.41,118.91c11.18-2.25,23.93,.77,31.38,8.58,6.85,7.17,8.52,17.03,13,25.53,3.84,7.27,9.98,14.3,9.2,22.26-.61,6.21-5.38,11.38-10.13,15.94-13.96,13.38-29.73,25.3-47.1,35.07-4.26,2.4-8.78,4.72-13.81,5.29-5.03,.57-10.71-1.02-13.3-4.91-2.69-4.03-1.4-9.09-.2-13.62,3.96-15,6.03-30.4,6.19-45.83,.08-7.72-.32-15.44-1.2-23.12-.8-6.99,.38-9.8,6.06-14.95,5.42-4.92,12.28-8.68,19.91-10.22Z"></path><path class="cls-1" d="M310.82,213.48c.41,2.94,.94,5.94,2.66,8.6,1.72,2.66,4.86,4.95,8.62,5.34,4.51,.47,8.63-1.77,11.99-4.1,22.63-15.7,32.9-39.32,42.08-61.91,1-2.46,2-5.08,1.17-7.6-1.52-4.61-8.27-6.82-14.24-7.8-14.11-2.33-35.32-2.74-47.94,3.45-5.82,2.85-4.08,12.57-4.53,17.88-.61,7.18-1.08,14.37-1.18,21.57-.11,8.19,.24,16.41,1.37,24.57Z"></path><path class="cls-3" d="M315.59,139.88c-5.84,3.87-10.21,8.89-14.51,13.83-1.7,1.95-3.47,4.26-2.59,6.55,1.18,3.08,6.15,3.99,10.24,4.35,18.03,1.61,36.06,3.21,54.09,4.82,4.7,.42,9.87,.75,13.71-1.32,4.9-2.65,5.61-8.18,4.23-12.77-2.06-6.91-7.89-13.14-15.73-16.81-8.12-3.81-17.08-3.61-26.09-4.46-8.75-.82-16.7,1.39-23.35,5.81Z"></path><path class="cls-6" d="M322.55,177.39c-1.67,.85-1.89,3.1-1.9,4.97,0,.82,0,1.67,.27,2.45,.27,.78,.88,1.49,1.69,1.66,.98,.2,1.98-.46,2.48-1.33,.5-.87,.62-1.9,.73-2.89,.13-1.14,.24-2.33-.16-3.41-.4-1.08-1.5-1.99-2.63-1.77"></path><path class="cls-6" d="M338.3,178.16c-1.67,.85-1.89,3.1-1.9,4.97,0,.82,0,1.67,.27,2.45,.27,.78,.88,1.49,1.69,1.66,.98,.2,1.98-.46,2.48-1.33,.5-.87,.62-1.9,.73-2.89,.13-1.14,.24-2.33-.16-3.41-.4-1.08-1.5-1.99-2.63-1.77"></path><path class="cls-2" d="M330.51,240.06c-3.91,0-7.55-.93-10.6-2.78-.24-.14-.31-.45-.17-.69,.15-.24,.45-.31,.69-.17,5.2,3.16,12.25,3.5,19.35,.94,6.41-2.31,11.96-6.47,17.33-10.49,.22-.16,.53-.12,.7,.1,.17,.22,.12,.53-.1,.7-5.43,4.07-11.04,8.27-17.59,10.63-3.26,1.17-6.52,1.76-9.61,1.76Z"></path><path class="cls-2" d="M229.45,308.46c-.14,0-.28-.06-.38-.17-4.23-4.8-10.57-7.78-16.96-7.98-.28,0-.49-.24-.48-.52,0-.28,.25-.49,.52-.48,6.66,.21,13.27,3.32,17.68,8.32,.18,.21,.16,.52-.04,.71-.1,.08-.21,.12-.33,.12Z"></path><path class="cls-2" d="M230.58,314.93c-.22,0-.42-.15-.48-.37-1.37-5.17-1.57-10.69-.58-15.95,.05-.27,.32-.45,.58-.4,.27,.05,.45,.31,.4,.58-.96,5.11-.77,10.48,.56,15.51,.07,.27-.09,.54-.36,.61-.04,.01-.09,.02-.13,.02Z"></path><path class="cls-6" d="M337.4,205.23c-.77,.95-1.74,1.82-2.94,2.1-1.73,.4-3.83-.44-5.15,.75-.94,.85-.9,2.46-.11,3.44,.8,.98,2.15,1.38,3.42,1.28,1.26-.1,2.45-.64,3.55-1.25,1.61-.9,3.14-1.99,4.33-3.4,1.14-1.36,2.83-4.35,1.22-6.05-1.61-1.71-3.48,2.1-4.32,3.14Z"></path><g><path class="cls-6" d="M366.61,360.44c2.77-.09,5.66-.18,8.16,1.01,2.5,1.19,4.42,4.1,3.52,6.71-1,2.9-4.57,3.82-7.6,4.3-6.75,1.08-13.5,2.15-20.25,3.23-11.62,1.85-23.29,3.71-35.05,4.04-12.11,.34-24.2-.95-36.25-2.23-16.24-1.73-32.48-3.46-48.72-5.18-2.41-.26-4.96-.56-6.89-2.03-1.93-1.46-2.89-4.51-1.32-6.36,.92-1.09,2.41-1.47,3.8-1.79,18.3-4.12,37.09-6.04,55.84-5.74,8.16,.13,15.94,1.71,24.06,2.41,9.67,.83,19.36,1.39,29.06,1.67,10.54,.31,21.1,.29,31.64-.05Z"></path><path class="cls-2" d="M313.88,373.74c-3.18,0-6.37-.21-9.54-.74-.31-.05-.51-.34-.46-.65,.05-.31,.35-.51,.65-.46,8.88,1.48,17.97,.38,26.76-.68l37.66-4.54c1.18-.14,2.39-.35,3.01-1.14,.32-.41,.27-1.06,.05-1.47-.16-.27-.36-.4-.59-.37-.3,.04-.59-.18-.62-.49-.04-.31,.18-.59,.49-.62,.7-.08,1.33,.27,1.71,.93,.48,.85,.42,2-.14,2.71-.89,1.13-2.35,1.4-3.76,1.57l-37.66,4.54c-5.76,.69-11.65,1.4-17.54,1.4Z"></path><path class="cls-6" d="M297.34,365.56c.58,1.92,1.12,4.14,.01,5.81-1.32,1.98-4.15,2.05-6.52,1.89-18.96-1.24-37.86-3.21-56.67-5.9-5.8-.83-11.85-1.83-16.57-5.31-4.46-3.29-7.16-8.4-9.54-13.4-9.53-20.05-16.23-41.44-19.85-63.34-.24-1.48-.46-3.04,.11-4.42,1.29-3.09,5.48-3.39,8.83-3.19,21.57,1.28,43.13,2.55,64.7,3.83,4.58,.27,8.97-.92,11.06,3.32,2.26,4.59,3.18,10.51,4.67,15.43,3.07,10.14,6.14,20.28,9.21,30.41,3.52,11.63,7.04,23.25,10.56,34.88Z"></path></g><path class="cls-1" d="M436.26,216.02c-2.35-1.93-5.05-3.54-6.74-6.06s-1.96-6.39,.43-8.27c2.71-2.13,6.81-.35,9.1,2.23s3.79,5.91,6.61,7.89c.94-5.12,.02-10.37-.52-15.55-.54-5.18-.65-10.66,1.72-15.29,2.37-4.63,7.96-7.99,12.86-6.23,4,1.44,6.34,5.8,6.68,10.03s-.95,8.41-2.22,12.46c3.47-3.05,7.1-6.19,11.54-7.5,4.44-1.3,9.94-.21,12.35,3.73,1.8,2.95,1.49,6.81,.11,9.97s-3.7,5.82-5.9,8.49c-9.62,11.67-17.61,24.68-23.65,38.55-1.24,2.85-2.44,5.8-4.59,8.05-2.15,2.24-5.51,3.63-8.42,2.53-6.96-2.65,1.11-16.45,1.13-21.82,.02-8.75-3.67-17.63-10.5-23.23Z"></path><path class="cls-2" d="M472.05,218.98c-.18,0-.36-.1-.45-.28-3.79-7.69-13.01-12.37-21.45-10.91-.28,.05-.53-.14-.58-.41-.05-.27,.13-.53,.41-.58,8.87-1.54,18.54,3.38,22.52,11.45,.12,.25,.02,.55-.23,.67-.07,.03-.15,.05-.22,.05Z"></path><path class="cls-2" d="M465.42,213.34c-.11,0-.21-.03-.31-.1-.22-.17-.26-.48-.09-.7,4.95-6.39,10.56-12.3,16.68-17.57,.21-.18,.53-.16,.71,.05,.18,.21,.16,.52-.05,.71-6.07,5.23-11.64,11.09-16.54,17.43-.1,.13-.25,.19-.4,.19Z"></path><path class="cls-2" d="M453.85,207.81c-.25,0-.47-.19-.5-.45-.92-8.61-.47-17.27,1.33-25.75,.06-.27,.33-.44,.59-.39,.27,.06,.44,.32,.39,.59-1.78,8.37-2.22,16.93-1.32,25.43,.03,.27-.17,.52-.44,.55-.02,0-.04,0-.05,0Z"></path></g></svg>